<svg width="1024" height="1024" viewBox="0 0 1024 1024" fill="none" xmlns="http://www.w3.org/2000/svg">
<g clip-path="url(#clip0_657_3461)">
<rect width="1024" height="1024" fill="#1D1E20"/>
<path d="M693.623 718H642.188L699.794 494.832H751.229L693.623 718ZM291.901 667.842L279.478 717.442H227.722L236.151 683.407L227.727 657.865L268.452 618.033L291.901 667.842ZM228.176 440.683C228.212 440.697 298.81 466.152 337.365 495.585H337.455L337.44 495.641C337.64 495.794 337.839 495.946 338.036 496.099L337.317 496.126L325.362 543.318L178.78 682.906L169.759 717.441H118L175.969 495.585H227.727L202.079 593.738L279.486 521.315L285.189 497.684C261.327 473.332 253.705 465.714 228.176 440.683ZM417.957 682.369L409.918 717.441H358.158L378.682 635.673L417.957 682.369ZM542.416 717.441L505.152 663.224L548.627 495.585H600.386L542.416 717.441ZM616.947 717.441H594.176L567.262 668.88H628.597L616.947 717.441ZM818.153 517.376L766.01 717.441H714.252L763.624 527.753L808.45 495.585L818.153 517.376ZM896.147 687.557L853.999 717.441L848.944 707.127L848.825 707.271L802.243 612.842L825.017 529.828L864.375 610.68L894.37 495.585H946.127L896.147 687.557ZM197.792 353.749C197.948 353.883 221.811 374.318 286.792 362.007C286.807 362.118 290.617 390.643 362.546 423.32C430.466 454.175 463.812 476.182 478.539 495.585H523.784L506.188 563.914L436.068 616.934L424.41 663.69L343.666 566.147L363.11 496.39C356.62 487.629 334.619 470.617 310.323 458.331C251.192 428.43 218.067 415.551 197.792 353.749ZM414.371 498.114L400.6 546.432L420.586 571.604L460.639 540.679L471.387 498.114H414.371ZM386.444 406.464C386.812 406.436 500.131 398.264 504.935 482.257C504.872 482.158 484.104 449.694 386.444 406.464ZM243.11 254.397C294.405 238.591 349.004 211.418 391.874 245.095C391.669 245.185 358.609 259.862 365.547 270.039C365.75 269.913 433.345 228.183 464.066 277.958L450.786 281.859C450.692 281.739 432.006 257.844 397.649 272.895C397.701 273.117 404.411 301.289 465.181 289.92C526.191 278.505 530.27 290.457 530.27 290.457C530.348 290.552 538.35 300.364 524.311 319.246C524.298 319.129 521.175 290.651 494.188 298.601C494.184 298.692 493.666 311.357 506.153 314.751C518.686 318.157 516.763 328.302 506.17 339.326C506.13 339.202 497.783 313.121 467.194 321.281C436.533 329.461 410.658 335.518 394.584 327.873C394.583 328.086 394.663 351.227 435.108 343.003C475.739 334.74 487.068 335.505 492.008 348.404C496.932 361.263 489.423 388.337 489.376 388.505C489.365 388.303 487.437 353.831 440.216 368.541C392.856 383.294 336.742 410.133 311.14 354.852C311.263 354.833 380.735 344.038 362.466 300.44C362.424 300.642 356.902 327.09 327.067 335.422C297.117 343.785 203.997 372.236 184.478 308.499C184.509 308.544 208.846 343.738 317.082 301.486C317.177 301.466 328.711 298.993 322.159 277.872C322.142 277.825 317.229 264.573 300.46 269.501C283.66 274.438 189.296 318.8 172.698 235.761C172.75 235.855 191.886 270.182 243.11 254.397Z" fill="#DEDEDE"/>
</g>
<defs>
<clipPath id="clip0_657_3461">
<rect width="1024" height="1024" fill="white"/>
</clipPath>
</defs>
</svg>
